<?xml version="1.0" encoding="utf-8"?>
<!-- Generator: Adobe Illustrator 26.0.3, SVG Export Plug-In . SVG Version: 6.00 Build 0)  -->
<svg version="1.1" id="Layer_1" xmlns="http://www.w3.org/2000/svg" xmlns:xlink="http://www.w3.org/1999/xlink" x="0px" y="0px"
	 viewBox="0 0 504.8 304.8" style="enable-background:new 0 0 504.8 304.8;" xml:space="preserve">
<style type="text/css">
	.st0{fill:#2BB673;}
	.st1{fill:#12A460;}
</style>
<g>
	<g>
		<path class="st0" d="M69.2,10.8c-3.6,0-7.4,0.3-11.6,1c-4.2,0.7-8.3,1.9-12.3,3.6c-4,1.8-7.7,4.2-11.1,7.4c-3.3,3.2-6,7.2-8,12.1
			c-2,4.9-3,10.9-3,18v4.7H3.5v24.6h19.7v72.1h32.4V82.3h25.2V57.7H55.7v-3.9c0-2.7,0.3-5.1,0.9-7.2c0.6-2.2,1.5-4,2.8-5.6
			c1.3-1.6,3-2.8,5.3-3.6c2.2-0.8,5-1.2,8.4-1.2c2.2,0,4.2,0.2,6.1,0.5c1.9,0.3,3.2,0.6,3.9,0.9V12.7c-0.7-0.3-2.1-0.7-4.1-1.2
			C76.8,11.1,73.6,10.8,69.2,10.8z"/>
		<path class="st0" d="M154.8,55.8c-4.9,0-9.2,0.8-13.1,2.3c-3.9,1.5-7.2,3.7-10.1,6.5c-1.9,1.8-3.5,4-5,6.3V57.7H94.2v96.6h32.5
			v-43.2c0-3.2,0.4-6.4,1.3-9.6c0.9-3.2,2.3-6.1,4.3-8.7c2-2.6,4.6-4.7,7.9-6.2c3.3-1.5,7.4-2.3,12.1-2.3c2.8,0,5.1,0.3,7,1
			c1.9,0.6,3.1,1.1,3.6,1.4l4.8-28.7c-0.5-0.3-1.9-0.7-4-1.3C161.7,56.1,158.7,55.8,154.8,55.8z"/>
		<path class="st0" d="M257.7,62.2c-8.1-4.3-17.7-6.4-28.8-6.4c-10.7,0-20.2,2.1-28.3,6.3c-8.2,4.2-14.5,10.1-19.1,17.7
			c-4.6,7.6-6.8,16.4-6.8,26.4c0,9.9,2.2,18.6,6.7,26.2c4.5,7.6,10.8,13.5,18.9,17.8c8.1,4.3,17.7,6.4,28.7,6.4
			c8,0,15.2-0.9,21.5-2.7c6.3-1.8,11.7-4.3,16.2-7.4c4.5-3.1,8-6.6,10.5-10.6c2.5-3.9,4-8,4.4-12.1h-32c-0.2,1-0.7,2.1-1.4,3.1
			c-0.8,1.1-1.9,2-3.4,2.9c-1.5,0.9-3.4,1.6-5.8,2.1c-2.4,0.5-5.3,0.8-8.6,0.8c-5.4,0-9.8-1.1-13.3-3.2c-3.5-2.2-6-5.3-7.7-9.4
			c-0.6-1.5-1.1-3.1-1.5-4.9h74.7c0.1-0.8,0.2-1.8,0.3-3.2c0.1-1.3,0.1-2.8,0.1-4.5c0-10.5-2.2-19.6-6.6-27.4
			C272,72.5,265.8,66.5,257.7,62.2z M217.1,82.3c3.4-2,7.5-3,12.3-3c4.9,0,8.9,0.9,11.9,2.7c3,1.8,5.2,4,6.6,6.7
			c1.1,2.1,1.7,4.2,2,6.3h-41.8c0.4-1.3,0.8-2.6,1.3-3.8C211.1,87.3,213.7,84.3,217.1,82.3z"/>
		<path class="st0" d="M371.7,102.4c-4.1-2.2-8.5-3.8-13-5c-4.5-1.2-8.7-2-12.5-2.5c-3.8-0.6-7.2-1.3-10.2-2c-3-0.7-5.3-1.6-7-2.7
			c-1.7-1.1-2.5-2.4-2.5-4c0-1.8,0.7-3.2,2.2-4.1c1.5-0.9,3.2-1.6,5.3-2c2.1-0.4,4-0.6,5.7-0.6c2.1,0,4.1,0.3,6.1,0.9
			c2,0.6,3.6,1.5,4.9,2.8c1.3,1.3,2,2.9,2,5c0,0.1,0,0.3,0,0.5c0,0.2,0,0.4,0,0.5h31.9c0-0.2,0-0.4,0-0.6c0-0.2,0-0.4,0-0.5
			c0-6.7-2.1-12.4-6.3-17.3c-4.2-4.9-9.7-8.6-16.5-11.2c-6.8-2.6-14-3.9-21.8-3.9c-8.2,0-15.7,1.2-22.5,3.5
			c-6.8,2.4-12.3,5.8-16.4,10.4c-4.1,4.6-6.2,10.3-6.2,17.2c0,5,1.2,9.3,3.6,12.7c2.4,3.5,5.6,6.3,9.6,8.6c3.9,2.2,8.2,4,12.8,5.4
			c4.6,1.3,9,2.3,13.2,3c7.4,1.2,12.7,2.4,15.8,3.5c3.1,1.1,4.7,2.9,4.7,5.6c0,1.6-0.7,3-2.2,4c-1.5,1.1-3.3,1.8-5.5,2.3
			c-2.2,0.5-4.3,0.7-6.3,0.7c-4.5,0-8.1-0.7-10.8-2c-2.6-1.3-4-3.5-4-6.6c0-0.2,0-0.4,0-0.5c0-0.2,0-0.4,0-0.5h-32.2
			c0,0.2,0,0.4,0,0.6c0,0.2,0,0.5,0,0.6c0,5.4,1.3,10.1,4,14.2c2.6,4.1,6.2,7.4,10.6,10.1c4.4,2.7,9.3,4.7,14.7,6.1
			c5.4,1.3,11,2,16.8,2c5.6,0,11.1-0.6,16.6-1.7c5.5-1.2,10.4-3,15-5.5c4.5-2.5,8.1-5.8,10.8-9.9c2.7-4.1,4-9,4-14.8
			c0-5.5-1.3-10.1-4-13.7C379.2,107.4,375.8,104.6,371.7,102.4z"/>
		<path class="st0" d="M492.8,66.2c-5.7-6.9-14.5-10.4-26.3-10.4c-8,0-15,1.7-21.1,5.2c-4.7,2.7-8.6,6.2-11.6,10.5V12.1h-32.4v142.2
			h32.4v-50.2c0-4.4,0.7-8.1,2-11.3c1.3-3.2,3.4-5.6,6.1-7.3c2.8-1.7,6.3-2.5,10.5-2.5c6.6,0,11,1.9,13.2,5.7
			c2.2,3.8,3.4,9.1,3.4,15.8c0,1.2,0,2.9,0,5c0,2.1,0,4.2,0,6.2c0,2.1,0,3.6,0,4.7v33.9h32.4v-31.7c0-6.2,0-11.5,0-16
			c0-4.5,0-8.3,0-11.5C501.3,82.8,498.5,73.2,492.8,66.2z"/>
	</g>
	<g>
		<path class="st1" d="M83.9,205.4c-7.5-4-16.5-6-26.8-6c-10,0-18.8,2-26.4,5.9c-7.6,3.9-13.5,9.4-17.8,16.5
			c-4.2,7-6.4,15.3-6.4,24.6c0,9.2,2.1,17.4,6.2,24.4c4.2,7.1,10,12.6,17.6,16.6c7.6,4,16.5,6,26.7,6c7.5,0,14.1-0.8,20.1-2.5
			c5.9-1.7,10.9-4,15.1-6.9c4.2-2.9,7.4-6.2,9.8-9.8c2.4-3.6,3.7-7.4,4.1-11.3H76.2c-0.2,1-0.6,1.9-1.3,2.9c-0.7,1-1.8,1.9-3.1,2.7
			c-1.4,0.8-3.2,1.5-5.4,2c-2.2,0.5-4.9,0.8-8,0.8c-5,0-9.2-1-12.4-3c-3.2-2-5.6-4.9-7.2-8.7c-0.6-1.4-1-2.9-1.4-4.5H107
			c0.1-0.7,0.2-1.7,0.3-3c0.1-1.2,0.1-2.6,0.1-4.2c0-9.8-2-18.3-6.1-25.5C97.2,215,91.4,209.4,83.9,205.4z M46,224.2
			c3.1-1.9,7-2.8,11.5-2.8c4.6,0,8.3,0.8,11.1,2.5c2.8,1.7,4.9,3.8,6.2,6.3c1,2,1.6,3.9,1.8,5.9h-39c0.3-1.2,0.7-2.4,1.2-3.5
			C40.5,228.8,42.9,226.1,46,224.2z"/>
		<path class="st1" d="M212.7,283.2c-0.5-1.9-0.8-3.9-0.9-6.1c-0.1-2.2-0.2-4.5-0.2-6.9v-29.9c0-1.2,0-2.4,0-3.6c0-1.2,0-2.4,0-3.6
			c0-7.7-2.2-14-6.5-19c-4.3-5-10-8.7-17-11.1c-7-2.4-14.5-3.6-22.7-3.6c-8.6,0-16.4,1.3-23.3,3.9c-7,2.6-12.5,6.4-16.6,11.5
			c-4.1,5.1-6.1,11.3-6.1,18.7h29.9c0-3.8,1.3-6.7,4-8.6c2.7-1.9,6.7-2.8,11.9-2.8c5,0,8.9,0.8,11.7,2.5c2.9,1.7,4.3,3.9,4.3,6.6
			c0,0.1,0,0.1,0,0.2c0,1.8-1.7,3-5.2,3.7c-3.5,0.7-10,1.5-19.5,2.4c-6.6,0.6-12.8,2-18.7,4.1c-5.9,2.1-10.7,5.2-14.3,9.2
			c-3.7,4-5.5,9.3-5.5,15.8c0,5.7,1.5,10.5,4.4,14.4c2.9,4,7,7,12,9c5.1,2.1,10.9,3.1,17.4,3.1c5.4,0,10.6-0.8,15.4-2.2
			c4.9-1.5,9.1-3.7,12.7-6.5c1-0.8,1.9-1.6,2.8-2.5c0.2,0.7,0.4,1.4,0.6,2.2c0.6,1.7,1.4,3.2,2.2,4.5c0.9,1.3,1.5,2.2,2,2.6h29.6
			c-0.6-0.5-1.3-1.5-2.2-2.9C214.1,287,213.3,285.3,212.7,283.2z M178.6,262.4c-2.1,3.1-4.7,5.4-8,6.8c-3.2,1.4-6.6,2.1-10.1,2.1
			c-4,0-7-0.6-9-1.9c-2.1-1.2-3.1-3.1-3.1-5.6c0-2.6,1.2-4.5,3.6-5.6c2.4-1.1,6-2,10.8-2.5c4.5-0.5,9.2-1.1,13.9-2
			c1.7-0.3,3.4-0.7,5-1.1C181.3,256.6,180.3,259.8,178.6,262.4z"/>
		<path class="st1" d="M270.6,171.6h-30.4v8.3c0,5.1-0.2,9.1-0.6,11.9c-0.4,2.9-1.1,5-2.2,6.3c-1.1,1.4-2.9,2.2-5.2,2.5
			c-2.3,0.3-5.4,0.5-9.3,0.5h-3.1v22.9h20.4v34.4c0,1.3,0,2.6,0,3.9c0,1.3,0,2.6,0,3.9c0,6,1.1,10.8,3.2,14.4
			c2.1,3.6,4.9,6.3,8.4,8.1c3.4,1.8,7.2,3,11.2,3.6c4,0.6,7.9,0.9,11.5,0.9c3.1,0,5.7-0.2,8.1-0.7c2.3-0.5,4.1-1,5.3-1.5v-22.2
			c-0.8,0.3-2.2,0.7-3.9,1.1c-1.8,0.4-3.6,0.6-5.6,0.6c-3.6,0-5.8-1.2-6.6-3.6c-0.8-2.4-1.3-5.3-1.3-8.9c0-0.9,0-1.8,0-2.7
			c0-0.9,0-1.8,0-2.8v-28.6H296v-22.9h-25.4V171.6z"/>
		<path class="st1" d="M327.5,263.3c-4.3,0-7.9,1.5-10.9,4.5c-3,3-4.5,6.6-4.5,10.8c0,4.2,1.5,7.9,4.5,10.9c3,3,6.6,4.5,10.8,4.5
			c4.2,0,7.8-1.5,10.8-4.5c3-3,4.5-6.6,4.5-10.9c0-4.2-1.5-7.8-4.5-10.8C335.2,264.8,331.7,263.3,327.5,263.3z"/>
		<path class="st1" d="M387.7,164.8c-3.4-2.3-7.4-3.5-12-3.5c-4.5,0-8.5,1.2-11.9,3.5c-3.4,2.3-5.1,5.7-5.1,10.1
			c0,4.4,1.7,7.7,5.1,10.1c3.4,2.4,7.4,3.6,11.9,3.6c4.6,0,8.6-1.2,12-3.5c3.4-2.3,5.1-5.7,5.1-10.1
			C392.8,170.5,391.1,167.1,387.7,164.8z"/>
		<rect x="360.8" y="201.2" class="st1" width="29.9" height="90.1"/>
		<path class="st1" d="M497.7,216.7c-2.2-5.4-5.6-9.7-10.3-12.7c-4.7-3.1-10.8-4.6-18.3-4.6c-7.2,0-13.7,1.6-19.4,4.9
			c-4.7,2.7-8.7,6.3-11.8,10.8v-14h-30.2v90.1H438v-46.1c0-4.1,0.6-7.7,2-10.8c1.3-3.1,3.3-5.4,5.9-7.1c2.6-1.7,5.8-2.5,9.6-2.5
			c4.4,0,7.7,0.9,9.9,2.8c2.2,1.8,3.6,4.2,4.4,7.2c0.8,3,1.1,6.1,1.1,9.5c0,1.4,0,2.9,0,4.7c0,1.8,0,3.7,0,5.6v36.6H501v-33.8
			c0-4.1,0-8,0-11.8c0-3.8,0-7.2,0-10.2C501,228.4,499.9,222.2,497.7,216.7z"/>
	</g>
</g>
</svg>
